<svg width="153" height="146" viewBox="0 0 153 146" fill="none" xmlns="http://www.w3.org/2000/svg">
<rect width="153" height="146" rx="25" fill="#2F2D2D"/>
<path d="M66.5391 78.1484H71.0391C70.8047 80.3047 70.1875 82.2344 69.1875 83.9375C68.1875 85.6406 66.7734 86.9922 64.9453 87.9922C63.1172 88.9766 60.8359 89.4688 58.1016 89.4688C56.1016 89.4688 54.2812 89.0938 52.6406 88.3438C51.0156 87.5938 49.6172 86.5312 48.4453 85.1562C47.2734 83.7656 46.3672 82.1016 45.7266 80.1641C45.1016 78.2109 44.7891 76.0391 44.7891 73.6484V70.25C44.7891 67.8594 45.1016 65.6953 45.7266 63.7578C46.3672 61.8047 47.2812 60.1328 48.4688 58.7422C49.6719 57.3516 51.1172 56.2812 52.8047 55.5312C54.4922 54.7812 56.3906 54.4062 58.5 54.4062C61.0781 54.4062 63.2578 54.8906 65.0391 55.8594C66.8203 56.8281 68.2031 58.1719 69.1875 59.8906C70.1875 61.5938 70.8047 63.5703 71.0391 65.8203H66.5391C66.3203 64.2266 65.9141 62.8594 65.3203 61.7188C64.7266 60.5625 63.8828 59.6719 62.7891 59.0469C61.6953 58.4219 60.2656 58.1094 58.5 58.1094C56.9844 58.1094 55.6484 58.3984 54.4922 58.9766C53.3516 59.5547 52.3906 60.375 51.6094 61.4375C50.8438 62.5 50.2656 63.7734 49.875 65.2578C49.4844 66.7422 49.2891 68.3906 49.2891 70.2031V73.6484C49.2891 75.3203 49.4609 76.8906 49.8047 78.3594C50.1641 79.8281 50.7031 81.1172 51.4219 82.2266C52.1406 83.3359 53.0547 84.2109 54.1641 84.8516C55.2734 85.4766 56.5859 85.7891 58.1016 85.7891C60.0234 85.7891 61.5547 85.4844 62.6953 84.875C63.8359 84.2656 64.6953 83.3906 65.2734 82.25C65.8672 81.1094 66.2891 79.7422 66.5391 78.1484ZM91.5 84.6641V71.6094C91.5 70.6094 91.2969 69.7422 90.8906 69.0078C90.5 68.2578 89.9062 67.6797 89.1094 67.2734C88.3125 66.8672 87.3281 66.6641 86.1562 66.6641C85.0625 66.6641 84.1016 66.8516 83.2734 67.2266C82.4609 67.6016 81.8203 68.0938 81.3516 68.7031C80.8984 69.3125 80.6719 69.9688 80.6719 70.6719H76.3359C76.3359 69.7656 76.5703 68.8672 77.0391 67.9766C77.5078 67.0859 78.1797 66.2812 79.0547 65.5625C79.9453 64.8281 81.0078 64.25 82.2422 63.8281C83.4922 63.3906 84.8828 63.1719 86.4141 63.1719C88.2578 63.1719 89.8828 63.4844 91.2891 64.1094C92.7109 64.7344 93.8203 65.6797 94.6172 66.9453C95.4297 68.1953 95.8359 69.7656 95.8359 71.6562V83.4688C95.8359 84.3125 95.9062 85.2109 96.0469 86.1641C96.2031 87.1172 96.4297 87.9375 96.7266 88.625V89H92.2031C91.9844 88.5 91.8125 87.8359 91.6875 87.0078C91.5625 86.1641 91.5 85.3828 91.5 84.6641ZM92.25 73.625L92.2969 76.6719H87.9141C86.6797 76.6719 85.5781 76.7734 84.6094 76.9766C83.6406 77.1641 82.8281 77.4531 82.1719 77.8438C81.5156 78.2344 81.0156 78.7266 80.6719 79.3203C80.3281 79.8984 80.1562 80.5781 80.1562 81.3594C80.1562 82.1562 80.3359 82.8828 80.6953 83.5391C81.0547 84.1953 81.5938 84.7188 82.3125 85.1094C83.0469 85.4844 83.9453 85.6719 85.0078 85.6719C86.3359 85.6719 87.5078 85.3906 88.5234 84.8281C89.5391 84.2656 90.3438 83.5781 90.9375 82.7656C91.5469 81.9531 91.875 81.1641 91.9219 80.3984L93.7734 82.4844C93.6641 83.1406 93.3672 83.8672 92.8828 84.6641C92.3984 85.4609 91.75 86.2266 90.9375 86.9609C90.1406 87.6797 89.1875 88.2812 88.0781 88.7656C86.9844 89.2344 85.75 89.4688 84.375 89.4688C82.6562 89.4688 81.1484 89.1328 79.8516 88.4609C78.5703 87.7891 77.5703 86.8906 76.8516 85.7656C76.1484 84.625 75.7969 83.3516 75.7969 81.9453C75.7969 80.5859 76.0625 79.3906 76.5938 78.3594C77.125 77.3125 77.8906 76.4453 78.8906 75.7578C79.8906 75.0547 81.0938 74.5234 82.5 74.1641C83.9062 73.8047 85.4766 73.625 87.2109 73.625H92.25ZM107.367 53V89H103.008V53H107.367Z" fill="white"/>
</svg>
